<svg xmlns="http://www.w3.org/2000/svg" viewBox="-639.741 60.812 116.385 160.317" fill="none" stroke="#111111" stroke-width="6.000" stroke-linecap="round" stroke-linejoin="round"><path d="M-583.865,93.002 L-584.442,90.718 L-584.047,90.924 L-584.392,91.445 L-583.849,91.456 L-583.618,92.483 L-582.799,99.252 L-582.516,109.860 L-582.785,126.926 L-584.106,148.517 L-583.772,165.991 L-584.070,172.341 L-582.383,188.169 L-582.420,192.888 L-583.015,194.129 L-583.251,193.810 L-582.766,193.582 L-582.700,192.947 L-583.057,192.498 L-583.053,190.542 L-584.727,178.355 L-585.329,163.822 L-583.960,150.097 L-583.268,125.019 L-583.402,119.282 L-581.906,105.166 L-582.532,103.190 L-582.335,102.625 L-582.777,101.723 L-582.653,99.754 L-582.320,99.024 L-582.821,97.427 L-582.490,96.788 L-583.221,96.331 L-583.060,95.618 L-583.005,95.938 L-582.756,95.763 L-583.107,95.275 L-582.457,91.482 L-582.508,89.753 L-581.979,87.812 L-581.727,87.830 L-582.116,88.319 L-581.870,88.747 L-582.668,91.140 L-583.374,98.253 L-583.300,105.075 L-583.898,123.171 L-583.641,137.449 L-582.322,154.671 L-582.174,160.383 L-581.554,165.858 L-581.561,170.275 L-580.917,174.904 L-580.837,179.230 L-579.753,184.296 L-579.832,185.339 L-578.934,186.978 L-579.134,187.114 L-578.998,186.687 L-579.474,186.554 L-579.109,186.473 L-579.299,185.519 L-578.858,182.854 L-578.922,180.865 L-580.219,176.270 L-580.697,167.344 L-579.908,154.145 L-580.702,141.564 L-581.104,123.628 L-580.562,117.412 L-579.507,111.146 L-579.389,104.383 L-579.007,101.570 L-579.336,93.187 L-578.899,88.746 L-578.933,88.488 L-579.121,88.923 L-578.719,89.554 L-578.958,89.800 L-579.180,89.319 L-578.851,90.030 L-579.625,93.257 L-580.137,98.994 L-581.502,106.769 L-581.623,109.670 L-581.344,112.506 L-582.542,122.157 L-583.872,144.164 L-583.946,162.488 L-583.064,172.232 L-583.237,174.587 L-582.354,179.493 L-582.500,181.678 L-581.744,191.448 L-581.967,192.786 L-581.626,193.334 L-582.004,193.425 L-581.795,191.589 L-581.390,190.952 L-581.635,190.781 L-581.443,190.925 L-581.719,191.030 L-581.474,191.188 L-581.622,191.003 L-581.215,190.510"/><path d="M-608.177,135.703 L-605.491,140.588 L-599.956,155.482 L-595.518,163.767 L-594.108,167.830 L-589.577,176.047 L-586.884,179.225 L-584.785,185.310 L-584.024,186.001 L-583.352,187.794 L-580.589,192.680 L-580.692,191.462 L-578.727,188.015 L-574.688,179.126 L-571.898,174.557 L-570.138,170.518 L-566.732,165.659 L-562.660,161.336 L-561.292,159.342 L-559.140,154.218 L-558.906,152.949 L-556.824,149.859 L-554.571,145.367 L-555.062,145.489 L-554.217,144.568 L-551.782,140.147 L-551.382,138.358 L-551.659,137.097 L-551.809,137.659 L-551.017,137.786 L-551.697,137.599 L-553.243,142.765 L-557.331,149.916 L-563.557,157.964 L-569.977,168.452 L-574.173,177.544 L-577.800,180.887 L-579.544,183.947 L-579.931,185.225 L-582.077,188.208 L-581.763,187.131 L-583.710,186.028 L-585.261,183.481 L-588.441,179.437 L-590.011,176.390 L-592.774,173.081 L-594.376,169.017 L-598.515,161.878 L-602.000,157.783 L-602.941,155.637 L-603.408,155.542 L-603.783,153.566 L-608.014,147.744 L-608.321,145.677 L-609.256,144.721 L-609.889,143.138 L-610.930,142.086 L-610.954,141.574 L-611.724,140.642 L-611.777,139.674 L-612.679,137.281 L-612.459,137.382 L-612.741,137.929 L-611.522,139.298 L-611.406,139.952 L-610.062,141.077 L-607.690,145.688 L-606.095,151.355 L-603.604,156.196 L-599.237,162.210 L-595.968,169.525 L-595.369,173.634 L-594.491,176.477 L-591.885,179.260 L-590.897,181.025 L-590.506,182.511 L-589.484,183.635 L-589.072,187.067 L-588.755,187.628 L-588.963,187.127 L-588.564,186.979 L-589.001,187.154 L-588.617,187.856 L-588.657,189.470 L-588.349,189.816 L-587.820,189.489 L-588.375,188.931 L-588.206,188.605 L-588.440,188.784 L-586.682,188.498 L-584.624,187.273 L-584.536,186.648 L-583.121,188.571 L-582.367,188.748 L-581.754,188.379 L-581.981,189.186 L-581.638,188.828 L-582.075,188.777 L-580.050,186.855 L-578.820,184.486 L-576.500,181.145 L-576.083,179.502 L-573.083,175.833 L-571.016,171.403 L-567.598,165.351 L-565.508,162.610 L-564.894,162.401 L-563.001,160.212 L-562.682,159.018 L-559.503,154.814 L-556.771,150.061 L-556.847,149.064 L-555.067,146.716 L-553.424,143.689 L-552.391,142.574 L-552.000,140.929 L-552.164,141.433 L-551.865,141.315 L-550.689,140.101 L-550.522,139.000 L-550.964,139.139 L-550.357,139.437 L-550.951,139.434 L-550.668,140.138 L-552.175,141.983 L-552.228,143.362 L-553.629,144.658 L-557.333,150.252 L-558.203,152.316 L-562.064,158.948 L-563.734,162.699 L-565.048,164.366 L-566.218,166.579 L-567.596,168.035 L-570.517,170.119 L-573.843,174.096 L-575.347,176.595 L-576.507,179.857 L-578.164,182.128 L-578.406,183.228 L-581.146,186.280 L-582.223,188.307 L-583.267,188.906 L-584.799,190.487 L-586.081,193.658 L-585.526,192.370 L-586.412,192.482 L-586.455,191.751 L-587.728,190.231 L-588.204,188.251 L-588.784,187.381 L-588.418,184.360 L-588.978,180.708 L-590.791,178.088 L-592.007,174.240 L-592.344,171.561 L-593.650,169.275 L-595.178,165.509 L-600.224,157.509 L-602.096,151.954 L-601.957,150.401 L-603.405,148.168 L-603.902,146.598 L-605.449,144.642 L-605.971,142.291 L-606.395,142.500 L-605.434,143.764 L-604.951,149.209 L-602.883,157.249 L-601.411,159.595 L-599.967,163.665 L-598.591,166.108 L-596.785,170.958 L-596.328,173.632 L-593.990,178.340 L-592.656,182.536 L-590.887,186.367 L-590.795,187.235 L-589.351,187.768 L-588.830,188.807 L-588.230,189.061 L-588.187,189.972 L-587.025,189.851 L-586.893,190.754 L-585.751,191.058 L-585.855,191.349 L-585.406,191.132 L-586.004,191.088 L-585.974,191.358 L-584.563,190.969 L-583.709,189.585 L-581.530,187.655 L-578.078,183.539 L-577.185,181.130 L-574.416,176.479 L-572.295,173.967 L-571.231,171.959 L-568.835,168.811 L-566.229,164.094 L-564.398,161.793 L-562.964,158.685 L-561.477,156.882 L-557.514,148.736 L-556.479,148.030 L-556.879,147.866 L-556.672,147.482 L-555.743,146.702 L-554.481,144.323 L-553.045,142.735 L-553.034,142.206 L-552.761,142.286 L-553.351,142.548 L-552.691,142.270 L-551.748,140.501 L-552.167,140.837 L-552.578,140.723 L-551.909,141.024 L-552.493,141.074 L-552.095,142.071 L-553.168,143.528 L-553.845,143.835 L-555.392,145.434 L-556.251,147.009 L-558.061,148.949 L-560.152,153.048 L-561.599,154.152 L-561.727,154.801 L-562.671,155.863 L-564.877,157.557 L-566.285,159.523 L-566.877,160.988 L-573.961,171.285 L-574.098,172.230 L-575.901,174.479 L-577.734,177.570 L-579.205,178.729 L-579.469,178.524 L-580.251,178.924 L-580.092,179.215 L-580.453,179.377 L-580.068,179.517 L-580.161,179.739 L-582.528,182.243 L-583.765,184.392 L-584.093,184.049 L-583.517,183.647 L-583.768,183.428 L-583.796,183.812 L-583.126,183.439 L-580.595,178.374 L-577.189,173.639 L-576.755,171.953 L-574.554,167.942 L-573.990,166.172 L-570.284,160.169 L-569.639,159.753 L-569.213,158.294 L-567.535,156.807 L-566.046,154.394 L-565.033,153.438 L-564.444,152.224 L-564.366,151.909 L-564.604,151.902 L-564.279,151.951 L-561.532,147.195 L-561.146,145.242 L-560.578,144.642 L-561.081,145.238 L-560.925,145.664 L-560.423,145.669 L-557.942,141.824 L-557.564,140.175 L-557.217,140.414 L-557.285,140.776 L-557.550,140.776 L-556.580,139.486 L-556.505,138.687 L-554.921,137.370 L-555.180,137.207 L-554.815,137.531 L-555.350,137.599 L-554.534,137.023 L-553.485,135.304 L-553.054,135.184 L-553.246,135.009 L-553.756,135.300 L-553.254,135.307 L-553.496,135.104 L-552.973,133.812 L-553.083,134.849 L-553.461,134.687 L-554.041,135.015"/></svg>